<svg xmlns="http://www.w3.org/2000/svg" xmlns:xlink="http://www.w3.org/1999/xlink" width="170" zoomAndPan="magnify" viewBox="0 0 387.75 136.499996" height="50" preserveAspectRatio="xMidYMid meet" version="1.0"><defs><g/><clipPath id="d2075d3e10"><path d="M 0.582031 9.792969 L 136.585938 9.792969 L 136.585938 126.664062 L 0.582031 126.664062 Z M 0.582031 9.792969 " clip-rule="nonzero"/></clipPath></defs><g fill="#ffffff" fill-opacity="1"><g transform="translate(163.662937, 70.361639)"><g><path d="M -1.75 0.6875 C -2.125 0.144531 -2.3125 -0.476562 -2.3125 -1.1875 L -2.3125 -1.3125 C -2.3125 -1.3125 -2.3125 -1.351562 -2.3125 -1.4375 C -2.226562 -2.519531 -1.851562 -3.25 -1.1875 -3.625 C -0.726562 -3.914062 -0.207031 -4.0625 0.375 -4.0625 L 0.9375 -4.0625 C 1.726562 -4.0625 2.25 -4.207031 2.5 -4.5 C 3 -5.039062 3.394531 -5.617188 3.6875 -6.234375 C 3.726562 -6.398438 3.78125 -6.546875 3.84375 -6.671875 C 3.90625 -6.796875 3.957031 -6.910156 4 -7.015625 C 4.039062 -7.117188 4.082031 -7.210938 4.125 -7.296875 C 4.164062 -7.378906 4.195312 -7.460938 4.21875 -7.546875 C 4.238281 -7.628906 4.269531 -7.703125 4.3125 -7.765625 C 4.351562 -7.828125 4.375 -7.878906 4.375 -7.921875 L 5.875 -11.484375 L 15.296875 -33.765625 C 15.460938 -34.179688 15.546875 -34.472656 15.546875 -34.640625 L 15.484375 -34.890625 C 15.023438 -35.140625 14.359375 -35.347656 13.484375 -35.515625 C 12.566406 -35.679688 11.921875 -35.910156 11.546875 -36.203125 C 10.960938 -36.660156 10.671875 -37.429688 10.671875 -38.515625 C 10.671875 -39.597656 11.046875 -40.367188 11.796875 -40.828125 C 12.335938 -41.160156 13.046875 -41.328125 13.921875 -41.328125 C 14.671875 -41.328125 15.359375 -41.304688 15.984375 -41.265625 C 16.609375 -41.222656 17.191406 -41.171875 17.734375 -41.109375 C 18.273438 -41.046875 18.789062 -40.953125 19.28125 -40.828125 C 20.78125 -40.410156 22.09375 -39.640625 23.21875 -38.515625 C 24.257812 -37.429688 25.21875 -35.828125 26.09375 -33.703125 L 36.578125 -7.859375 C 37.160156 -6.410156 37.703125 -5.351562 38.203125 -4.6875 C 38.367188 -4.476562 38.554688 -4.320312 38.765625 -4.21875 C 38.972656 -4.113281 39.242188 -4.0625 39.578125 -4.0625 L 39.953125 -4.0625 C 40.742188 -4.0625 41.367188 -3.851562 41.828125 -3.4375 C 41.910156 -3.394531 41.992188 -3.332031 42.078125 -3.25 C 42.160156 -3.164062 42.222656 -3.09375 42.265625 -3.03125 C 42.304688 -2.96875 42.347656 -2.894531 42.390625 -2.8125 C 42.429688 -2.726562 42.460938 -2.65625 42.484375 -2.59375 C 42.503906 -2.53125 42.523438 -2.445312 42.546875 -2.34375 C 42.566406 -2.238281 42.585938 -2.164062 42.609375 -2.125 C 42.628906 -2.082031 42.640625 -2.007812 42.640625 -1.90625 C 42.640625 -1.800781 42.648438 -1.726562 42.671875 -1.6875 C 42.691406 -1.644531 42.703125 -1.582031 42.703125 -1.5 C 42.703125 -1.414062 42.703125 -1.351562 42.703125 -1.3125 L 42.703125 -1.1875 C 42.703125 -0.476562 42.515625 0.144531 42.140625 0.6875 C 41.972656 0.894531 41.773438 1.082031 41.546875 1.25 C 41.316406 1.414062 41.066406 1.539062 40.796875 1.625 C 40.523438 1.707031 40.265625 1.75 40.015625 1.75 L 39.953125 1.75 C 37.285156 1.625 35.015625 1.5625 33.140625 1.5625 C 30.691406 1.5625 28.132812 1.625 25.46875 1.75 L 25.40625 1.75 C 25.15625 1.75 24.894531 1.707031 24.625 1.625 C 24.351562 1.539062 24.101562 1.414062 23.875 1.25 C 23.644531 1.082031 23.445312 0.894531 23.28125 0.6875 C 23.070312 0.394531 22.925781 0.09375 22.84375 -0.21875 C 22.757812 -0.53125 22.71875 -0.851562 22.71875 -1.1875 L 22.71875 -1.3125 C 22.800781 -2.3125 23.09375 -3.019531 23.59375 -3.4375 C 24.050781 -3.851562 24.675781 -4.0625 25.46875 -4.0625 C 26.59375 -4.0625 27.363281 -4.144531 27.78125 -4.3125 C 27.78125 -4.351562 27.78125 -4.375 27.78125 -4.375 C 27.78125 -4.414062 27.757812 -4.539062 27.71875 -4.75 C 27.675781 -4.957031 27.601562 -5.25 27.5 -5.625 C 27.394531 -6 27.28125 -6.367188 27.15625 -6.734375 L 25.40625 -10.921875 L 12.109375 -10.921875 C 11.691406 -9.921875 11.378906 -9.128906 11.171875 -8.546875 C 10.921875 -8.003906 10.773438 -7.648438 10.734375 -7.484375 C 10.691406 -7.398438 10.648438 -7.273438 10.609375 -7.109375 C 10.609375 -7.023438 10.597656 -6.960938 10.578125 -6.921875 C 10.554688 -6.878906 10.546875 -6.835938 10.546875 -6.796875 C 10.335938 -6.222656 10.171875 -5.695312 10.046875 -5.21875 C 9.921875 -4.738281 9.859375 -4.4375 9.859375 -4.3125 C 10.398438 -4.144531 11.378906 -4.0625 12.796875 -4.0625 L 13.171875 -4.0625 C 13.960938 -4.0625 14.585938 -3.851562 15.046875 -3.4375 C 15.546875 -3.019531 15.835938 -2.3125 15.921875 -1.3125 L 15.921875 -1.1875 C 15.921875 -0.476562 15.734375 0.144531 15.359375 0.6875 C 15.109375 1.019531 14.796875 1.28125 14.421875 1.46875 C 14.046875 1.65625 13.648438 1.75 13.234375 1.75 L 13.171875 1.75 C 11.835938 1.664062 10.609375 1.613281 9.484375 1.59375 C 8.359375 1.570312 7.335938 1.5625 6.421875 1.5625 C 5.140625 1.5625 3.144531 1.625 0.4375 1.75 L 0.375 1.75 C -0.539062 1.75 -1.25 1.394531 -1.75 0.6875 Z M 14.546875 -16.734375 L 23.03125 -16.734375 L 18.90625 -27.28125 Z M 14.546875 -16.734375 "/></g></g></g><g fill="#ffffff" fill-opacity="1"><g transform="translate(204.428269, 70.361639)"><g><path d="M 1.6875 0.75 C 1.269531 0.207031 1.0625 -0.4375 1.0625 -1.1875 L 1.0625 -1.3125 C 1.144531 -2.476562 1.5625 -3.269531 2.3125 -3.6875 C 2.769531 -3.9375 3.414062 -4.0625 4.25 -4.0625 C 5.125 -4.0625 5.707031 -4.164062 6 -4.375 C 6.28125 -4.582031 6.441406 -4.832031 6.484375 -5.125 C 6.609375 -5.664062 6.691406 -6.390625 6.734375 -7.296875 L 6.734375 -32.078125 C 6.691406 -32.992188 6.609375 -33.722656 6.484375 -34.265625 C 6.484375 -34.347656 6.460938 -34.429688 6.421875 -34.515625 C 6.378906 -34.597656 6.328125 -34.679688 6.265625 -34.765625 C 6.210938 -34.847656 6.125 -34.910156 6 -34.953125 C 5.707031 -35.203125 5.125 -35.328125 4.25 -35.328125 L 3.875 -35.328125 C 3.082031 -35.328125 2.457031 -35.515625 2 -35.890625 C 1.75 -36.097656 1.550781 -36.359375 1.40625 -36.671875 C 1.257812 -36.984375 1.175781 -37.210938 1.15625 -37.359375 C 1.132812 -37.503906 1.101562 -37.742188 1.0625 -38.078125 L 1.0625 -38.203125 C 1.0625 -38.953125 1.269531 -39.597656 1.6875 -40.140625 C 2.226562 -40.804688 2.914062 -41.140625 3.75 -41.140625 L 3.8125 -41.140625 C 4.726562 -41.097656 5.597656 -41.066406 6.421875 -41.046875 C 7.253906 -41.023438 8.078125 -41.003906 8.890625 -40.984375 C 9.703125 -40.960938 10.484375 -40.953125 11.234375 -40.953125 L 20.59375 -40.953125 C 24.425781 -40.953125 28.148438 -40.160156 31.765625 -38.578125 C 33.722656 -37.703125 35.210938 -36.367188 36.234375 -34.578125 C 37.253906 -32.785156 37.765625 -30.644531 37.765625 -28.15625 C 37.765625 -25.320312 36.910156 -22.78125 35.203125 -20.53125 C 33.535156 -18.375 31.394531 -16.691406 28.78125 -15.484375 C 26.15625 -14.316406 23.445312 -13.734375 20.65625 -13.734375 C 19 -13.734375 17.441406 -13.898438 15.984375 -14.234375 L 15.984375 -7.296875 C 16.023438 -6.796875 16.054688 -6.367188 16.078125 -6.015625 C 16.097656 -5.671875 16.148438 -5.375 16.234375 -5.125 C 16.273438 -5 16.328125 -4.875 16.390625 -4.75 C 16.453125 -4.625 16.566406 -4.5 16.734375 -4.375 C 17.023438 -4.164062 17.609375 -4.0625 18.484375 -4.0625 L 18.84375 -4.0625 C 19.21875 -4.0625 19.550781 -4.03125 19.84375 -3.96875 C 20.132812 -3.90625 20.425781 -3.75 20.71875 -3.5 C 21.257812 -3.082031 21.570312 -2.351562 21.65625 -1.3125 L 21.65625 -1.1875 C 21.65625 -0.476562 21.46875 0.144531 21.09375 0.6875 C 20.925781 0.894531 20.726562 1.082031 20.5 1.25 C 20.269531 1.414062 20.019531 1.539062 19.75 1.625 C 19.476562 1.707031 19.21875 1.75 18.96875 1.75 L 18.90625 1.75 C 16.25 1.625 13.671875 1.5625 11.171875 1.5625 C 8.960938 1.5625 6.507812 1.625 3.8125 1.75 L 3.75 1.75 C 2.914062 1.75 2.226562 1.414062 1.6875 0.75 Z M 22.96875 -20.46875 C 23.382812 -20.632812 23.789062 -20.84375 24.1875 -21.09375 C 24.582031 -21.34375 24.957031 -21.625 25.3125 -21.9375 C 25.664062 -22.25 26.007812 -22.632812 26.34375 -23.09375 C 26.800781 -23.675781 27.144531 -24.363281 27.375 -25.15625 C 27.601562 -25.945312 27.71875 -26.882812 27.71875 -27.96875 C 27.71875 -31 26.84375 -32.972656 25.09375 -33.890625 C 22.96875 -34.972656 20.722656 -35.515625 18.359375 -35.515625 C 17.898438 -35.515625 17.515625 -35.492188 17.203125 -35.453125 C 16.890625 -35.410156 16.671875 -35.347656 16.546875 -35.265625 C 16.421875 -35.222656 16.316406 -35.097656 16.234375 -34.890625 C 16.066406 -34.390625 15.984375 -33.515625 15.984375 -32.265625 L 15.984375 -19.90625 C 16.734375 -19.738281 17.6875 -19.65625 18.84375 -19.65625 C 20.132812 -19.65625 21.507812 -19.925781 22.96875 -20.46875 Z M 22.96875 -20.46875 "/></g></g></g><g fill="#ffffff" fill-opacity="1"><g transform="translate(242.134635, 70.361639)"><g><path d="M 11.546875 -0.25 C 8.296875 -2.289062 5.78125 -4.992188 4 -8.359375 C 2.25 -11.734375 1.375 -15.332031 1.375 -19.15625 C 1.375 -23.820312 2.4375 -27.898438 4.5625 -31.390625 C 6.675781 -34.890625 9.390625 -37.566406 12.703125 -39.421875 C 16.015625 -41.273438 19.394531 -42.203125 22.84375 -42.203125 C 27.132812 -42.203125 30.941406 -41.179688 34.265625 -39.140625 C 34.890625 -38.722656 35.503906 -38.285156 36.109375 -37.828125 C 36.710938 -37.367188 37.285156 -36.878906 37.828125 -36.359375 C 38.367188 -35.835938 38.878906 -35.296875 39.359375 -34.734375 C 39.835938 -34.171875 40.285156 -33.578125 40.703125 -32.953125 C 41.117188 -32.328125 41.515625 -31.6875 41.890625 -31.03125 C 43.628906 -27.695312 44.5 -24.113281 44.5 -20.28125 C 44.5 -17.957031 44.226562 -15.773438 43.6875 -13.734375 C 43.15625 -11.691406 42.347656 -9.773438 41.265625 -7.984375 C 40.222656 -6.285156 39.003906 -4.757812 37.609375 -3.40625 C 36.210938 -2.050781 34.679688 -0.914062 33.015625 0 C 29.648438 1.875 26.257812 2.8125 22.84375 2.8125 C 18.601562 2.8125 14.835938 1.789062 11.546875 -0.25 Z M 28.84375 -5.1875 C 30.5 -6.675781 31.765625 -8.710938 32.640625 -11.296875 C 33.515625 -14.003906 33.953125 -17 33.953125 -20.28125 C 33.953125 -23.320312 33.492188 -26.09375 32.578125 -28.59375 C 32.367188 -29.21875 32.128906 -29.800781 31.859375 -30.34375 C 31.585938 -30.882812 31.296875 -31.390625 30.984375 -31.859375 C 30.679688 -32.335938 30.34375 -32.785156 29.96875 -33.203125 C 29.59375 -33.617188 29.195312 -33.992188 28.78125 -34.328125 C 28.363281 -34.703125 27.9375 -35.015625 27.5 -35.265625 C 27.0625 -35.515625 26.59375 -35.722656 26.09375 -35.890625 C 25.59375 -36.054688 25.070312 -36.179688 24.53125 -36.265625 C 23.988281 -36.347656 23.40625 -36.390625 22.78125 -36.390625 C 19.207031 -36.390625 16.523438 -34.890625 14.734375 -31.890625 C 13.773438 -30.273438 13.046875 -28.425781 12.546875 -26.34375 C 12.046875 -24.257812 11.796875 -21.925781 11.796875 -19.34375 C 11.796875 -17.8125 11.910156 -16.347656 12.140625 -14.953125 C 12.367188 -13.554688 12.691406 -12.210938 13.109375 -10.921875 C 13.941406 -8.503906 15.191406 -6.570312 16.859375 -5.125 C 18.429688 -3.75 20.40625 -3.0625 22.78125 -3.0625 C 25.195312 -3.0625 27.21875 -3.769531 28.84375 -5.1875 Z M 28.84375 -5.1875 "/></g></g></g><g fill="#ffffff" fill-opacity="1"><g transform="translate(288.019039, 70.361639)"><g><path d="M 1.6875 0.6875 C 1.476562 0.394531 1.332031 0.09375 1.25 -0.21875 C 1.164062 -0.53125 1.125 -0.851562 1.125 -1.1875 L 1.125 -1.3125 C 1.125 -1.3125 1.125 -1.351562 1.125 -1.4375 C 1.207031 -2.519531 1.582031 -3.25 2.25 -3.625 C 2.707031 -3.914062 3.375 -4.0625 4.25 -4.0625 C 5.125 -4.0625 5.707031 -4.164062 6 -4.375 C 6.28125 -4.582031 6.441406 -4.832031 6.484375 -5.125 C 6.609375 -5.664062 6.691406 -6.390625 6.734375 -7.296875 L 6.734375 -32.078125 C 6.691406 -32.992188 6.609375 -33.722656 6.484375 -34.265625 C 6.484375 -34.347656 6.460938 -34.429688 6.421875 -34.515625 C 6.378906 -34.597656 6.328125 -34.679688 6.265625 -34.765625 C 6.210938 -34.847656 6.125 -34.910156 6 -34.953125 C 5.707031 -35.203125 5.125 -35.328125 4.25 -35.328125 L 3.875 -35.328125 C 3.707031 -35.328125 3.5625 -35.335938 3.4375 -35.359375 C 3.3125 -35.378906 3.15625 -35.398438 2.96875 -35.421875 C 2.78125 -35.441406 2.601562 -35.492188 2.4375 -35.578125 C 2.269531 -35.660156 2.125 -35.785156 2 -35.953125 C 1.914062 -35.992188 1.832031 -36.054688 1.75 -36.140625 C 1.664062 -36.222656 1.601562 -36.296875 1.5625 -36.359375 C 1.519531 -36.421875 1.476562 -36.492188 1.4375 -36.578125 C 1.394531 -36.660156 1.363281 -36.734375 1.34375 -36.796875 C 1.320312 -36.859375 1.300781 -36.941406 1.28125 -37.046875 C 1.257812 -37.148438 1.238281 -37.222656 1.21875 -37.265625 C 1.195312 -37.304688 1.1875 -37.378906 1.1875 -37.484375 C 1.1875 -37.585938 1.175781 -37.660156 1.15625 -37.703125 C 1.132812 -37.742188 1.125 -37.804688 1.125 -37.890625 C 1.125 -37.972656 1.125 -38.035156 1.125 -38.078125 L 1.125 -38.203125 C 1.164062 -38.910156 1.351562 -39.535156 1.6875 -40.078125 C 1.894531 -40.410156 2.1875 -40.671875 2.5625 -40.859375 C 2.9375 -41.046875 3.332031 -41.140625 3.75 -41.140625 L 3.8125 -41.140625 C 6.550781 -41.015625 9.003906 -40.953125 11.171875 -40.953125 C 13.628906 -40.953125 16.207031 -41.015625 18.90625 -41.140625 L 18.96875 -41.140625 C 19.21875 -41.140625 19.476562 -41.097656 19.75 -41.015625 C 20.019531 -40.929688 20.269531 -40.804688 20.5 -40.640625 C 20.726562 -40.472656 20.925781 -40.285156 21.09375 -40.078125 C 21.300781 -39.785156 21.445312 -39.484375 21.53125 -39.171875 C 21.613281 -38.859375 21.65625 -38.535156 21.65625 -38.203125 L 21.65625 -38.078125 C 21.570312 -36.910156 21.15625 -36.117188 20.40625 -35.703125 C 20.113281 -35.535156 19.832031 -35.429688 19.5625 -35.390625 C 19.289062 -35.347656 18.953125 -35.328125 18.546875 -35.328125 C 17.671875 -35.328125 17.085938 -35.203125 16.796875 -34.953125 C 16.503906 -34.785156 16.335938 -34.554688 16.296875 -34.265625 C 16.171875 -33.722656 16.085938 -32.992188 16.046875 -32.078125 L 16.046875 -6.421875 C 16.128906 -5.722656 16.210938 -5.164062 16.296875 -4.75 C 16.296875 -4.707031 16.316406 -4.675781 16.359375 -4.65625 C 16.398438 -4.632812 16.453125 -4.59375 16.515625 -4.53125 C 16.578125 -4.46875 16.648438 -4.414062 16.734375 -4.375 C 16.898438 -4.289062 17.148438 -4.21875 17.484375 -4.15625 C 17.816406 -4.09375 18.269531 -4.0625 18.84375 -4.0625 L 24.46875 -4.0625 C 25.632812 -4.101562 26.46875 -4.269531 26.96875 -4.5625 C 27.46875 -4.851562 27.863281 -5.3125 28.15625 -5.9375 C 28.320312 -6.300781 28.539062 -6.847656 28.8125 -7.578125 C 29.082031 -8.304688 29.363281 -9.171875 29.65625 -10.171875 L 29.65625 -10.234375 L 29.71875 -10.296875 C 30.007812 -11.046875 30.503906 -11.578125 31.203125 -11.890625 C 31.910156 -12.203125 32.679688 -12.296875 33.515625 -12.171875 L 33.578125 -12.171875 L 33.578125 -12.109375 C 33.910156 -12.066406 34.210938 -11.972656 34.484375 -11.828125 C 34.753906 -11.679688 35.015625 -11.523438 35.265625 -11.359375 C 36.054688 -10.734375 36.410156 -9.941406 36.328125 -8.984375 L 36.328125 -8.921875 L 35.078125 -1.0625 L 35.078125 -1 L 35.015625 -0.9375 C 34.929688 -0.519531 34.804688 -0.144531 34.640625 0.1875 C 34.472656 0.519531 34.203125 0.8125 33.828125 1.0625 C 33.328125 1.394531 32.617188 1.5625 31.703125 1.5625 L 11.234375 1.5625 C 10.109375 1.5625 8.929688 1.570312 7.703125 1.59375 C 6.484375 1.613281 5.1875 1.664062 3.8125 1.75 L 3.75 1.75 C 2.875 1.75 2.1875 1.394531 1.6875 0.6875 Z M 1.6875 0.6875 "/></g></g></g><g fill="#ffffff" fill-opacity="1"><g transform="translate(323.665298, 70.361639)"><g><path d="M 11.546875 -0.25 C 8.296875 -2.289062 5.78125 -4.992188 4 -8.359375 C 2.25 -11.734375 1.375 -15.332031 1.375 -19.15625 C 1.375 -23.820312 2.4375 -27.898438 4.5625 -31.390625 C 6.675781 -34.890625 9.390625 -37.566406 12.703125 -39.421875 C 16.015625 -41.273438 19.394531 -42.203125 22.84375 -42.203125 C 27.132812 -42.203125 30.941406 -41.179688 34.265625 -39.140625 C 34.890625 -38.722656 35.503906 -38.285156 36.109375 -37.828125 C 36.710938 -37.367188 37.285156 -36.878906 37.828125 -36.359375 C 38.367188 -35.835938 38.878906 -35.296875 39.359375 -34.734375 C 39.835938 -34.171875 40.285156 -33.578125 40.703125 -32.953125 C 41.117188 -32.328125 41.515625 -31.6875 41.890625 -31.03125 C 43.628906 -27.695312 44.5 -24.113281 44.5 -20.28125 C 44.5 -17.957031 44.226562 -15.773438 43.6875 -13.734375 C 43.15625 -11.691406 42.347656 -9.773438 41.265625 -7.984375 C 40.222656 -6.285156 39.003906 -4.757812 37.609375 -3.40625 C 36.210938 -2.050781 34.679688 -0.914062 33.015625 0 C 29.648438 1.875 26.257812 2.8125 22.84375 2.8125 C 18.601562 2.8125 14.835938 1.789062 11.546875 -0.25 Z M 28.84375 -5.1875 C 30.5 -6.675781 31.765625 -8.710938 32.640625 -11.296875 C 33.515625 -14.003906 33.953125 -17 33.953125 -20.28125 C 33.953125 -23.320312 33.492188 -26.09375 32.578125 -28.59375 C 32.367188 -29.21875 32.128906 -29.800781 31.859375 -30.34375 C 31.585938 -30.882812 31.296875 -31.390625 30.984375 -31.859375 C 30.679688 -32.335938 30.34375 -32.785156 29.96875 -33.203125 C 29.59375 -33.617188 29.195312 -33.992188 28.78125 -34.328125 C 28.363281 -34.703125 27.9375 -35.015625 27.5 -35.265625 C 27.0625 -35.515625 26.59375 -35.722656 26.09375 -35.890625 C 25.59375 -36.054688 25.070312 -36.179688 24.53125 -36.265625 C 23.988281 -36.347656 23.40625 -36.390625 22.78125 -36.390625 C 19.207031 -36.390625 16.523438 -34.890625 14.734375 -31.890625 C 13.773438 -30.273438 13.046875 -28.425781 12.546875 -26.34375 C 12.046875 -24.257812 11.796875 -21.925781 11.796875 -19.34375 C 11.796875 -17.8125 11.910156 -16.347656 12.140625 -14.953125 C 12.367188 -13.554688 12.691406 -12.210938 13.109375 -10.921875 C 13.941406 -8.503906 15.191406 -6.570312 16.859375 -5.125 C 18.429688 -3.75 20.40625 -3.0625 22.78125 -3.0625 C 25.195312 -3.0625 27.21875 -3.769531 28.84375 -5.1875 Z M 28.84375 -5.1875 "/></g></g></g><g fill="#ffffff" fill-opacity="1"><g transform="translate(163.662937, 112.723346)"><g><path d="M 2.3125 0.109375 C 2.113281 0.109375 1.953125 0.0234375 1.828125 -0.140625 C 1.710938 -0.304688 1.65625 -0.503906 1.65625 -0.734375 C 1.6875 -1.117188 1.765625 -1.347656 1.890625 -1.421875 C 2.023438 -1.503906 2.269531 -1.546875 2.625 -1.546875 C 3.375 -1.546875 3.925781 -1.679688 4.28125 -1.953125 C 4.644531 -2.222656 4.867188 -2.554688 4.953125 -2.953125 C 5.046875 -3.359375 5.109375 -3.878906 5.140625 -4.515625 L 5.140625 -19.859375 C 5.109375 -20.503906 5.046875 -21.023438 4.953125 -21.421875 C 4.867188 -21.828125 4.644531 -22.164062 4.28125 -22.4375 C 3.925781 -22.707031 3.375 -22.84375 2.625 -22.84375 L 2.390625 -22.84375 C 2.140625 -22.84375 1.960938 -22.882812 1.859375 -22.96875 C 1.753906 -23.0625 1.6875 -23.285156 1.65625 -23.640625 C 1.65625 -23.878906 1.710938 -24.082031 1.828125 -24.25 C 1.953125 -24.414062 2.113281 -24.5 2.3125 -24.5 C 4.019531 -24.414062 5.554688 -24.375 6.921875 -24.375 C 8.460938 -24.375 10.070312 -24.414062 11.75 -24.5 C 11.976562 -24.5 12.148438 -24.414062 12.265625 -24.25 C 12.378906 -24.082031 12.4375 -23.878906 12.4375 -23.640625 C 12.414062 -23.253906 12.332031 -23.023438 12.1875 -22.953125 C 12.050781 -22.878906 11.8125 -22.84375 11.46875 -22.84375 C 10.726562 -22.84375 10.175781 -22.707031 9.8125 -22.4375 C 9.457031 -22.164062 9.234375 -21.828125 9.140625 -21.421875 C 9.046875 -21.023438 8.988281 -20.503906 8.96875 -19.859375 L 8.96875 -3.9375 C 9.019531 -3.394531 9.082031 -2.972656 9.15625 -2.671875 C 9.238281 -2.378906 9.472656 -2.109375 9.859375 -1.859375 C 10.242188 -1.617188 10.847656 -1.515625 11.671875 -1.546875 L 15.140625 -1.546875 C 16.046875 -1.566406 16.726562 -1.710938 17.1875 -1.984375 C 17.65625 -2.253906 18.023438 -2.671875 18.296875 -3.234375 C 18.566406 -3.804688 18.894531 -4.738281 19.28125 -6.03125 C 19.457031 -6.488281 19.894531 -6.664062 20.59375 -6.5625 C 20.820312 -6.507812 21.039062 -6.40625 21.25 -6.25 C 21.457031 -6.101562 21.546875 -5.914062 21.515625 -5.6875 L 20.75 -0.8125 C 20.675781 -0.476562 20.5625 -0.257812 20.40625 -0.15625 C 20.25 -0.0507812 19.988281 0 19.625 0 L 6.953125 0 C 5.566406 0 4.019531 0.0351562 2.3125 0.109375 Z M 2.3125 0.109375 "/></g></g></g><g fill="#ffffff" fill-opacity="1"><g transform="translate(185.723066, 112.723346)"><g><path d="M 2.3125 0.109375 C 2.082031 0.109375 1.910156 0.0234375 1.796875 -0.140625 C 1.679688 -0.304688 1.625 -0.503906 1.625 -0.734375 C 1.644531 -1.117188 1.726562 -1.347656 1.875 -1.421875 C 2.019531 -1.503906 2.257812 -1.546875 2.59375 -1.546875 C 3.332031 -1.546875 3.882812 -1.679688 4.25 -1.953125 C 4.613281 -2.222656 4.84375 -2.550781 4.9375 -2.9375 C 5.039062 -3.320312 5.109375 -3.847656 5.140625 -4.515625 L 5.140625 -19.859375 C 5.109375 -20.523438 5.039062 -21.050781 4.9375 -21.4375 C 4.84375 -21.832031 4.613281 -22.164062 4.25 -22.4375 C 3.882812 -22.707031 3.332031 -22.84375 2.59375 -22.84375 L 2.359375 -22.84375 C 2.128906 -22.84375 1.953125 -22.882812 1.828125 -22.96875 C 1.710938 -23.0625 1.644531 -23.285156 1.625 -23.640625 C 1.625 -23.878906 1.679688 -24.082031 1.796875 -24.25 C 1.910156 -24.414062 2.082031 -24.5 2.3125 -24.5 C 3.988281 -24.414062 5.523438 -24.375 6.921875 -24.375 C 8.460938 -24.375 10.070312 -24.414062 11.75 -24.5 C 11.976562 -24.5 12.148438 -24.414062 12.265625 -24.25 C 12.378906 -24.082031 12.4375 -23.878906 12.4375 -23.640625 C 12.414062 -23.253906 12.332031 -23.023438 12.1875 -22.953125 C 12.050781 -22.878906 11.800781 -22.84375 11.4375 -22.84375 C 10.6875 -22.84375 10.128906 -22.707031 9.765625 -22.4375 C 9.410156 -22.164062 9.1875 -21.828125 9.09375 -21.421875 C 9.007812 -21.023438 8.953125 -20.503906 8.921875 -19.859375 L 8.921875 -4.515625 C 8.953125 -3.878906 9.007812 -3.359375 9.09375 -2.953125 C 9.1875 -2.554688 9.410156 -2.222656 9.765625 -1.953125 C 10.128906 -1.679688 10.6875 -1.546875 11.4375 -1.546875 L 11.671875 -1.546875 C 11.929688 -1.546875 12.117188 -1.5 12.234375 -1.40625 C 12.347656 -1.320312 12.414062 -1.097656 12.4375 -0.734375 C 12.4375 -0.503906 12.378906 -0.304688 12.265625 -0.140625 C 12.148438 0.0234375 11.976562 0.109375 11.75 0.109375 C 10.101562 0.0351562 8.503906 0 6.953125 0 C 5.535156 0 3.988281 0.0351562 2.3125 0.109375 Z M 2.3125 0.109375 "/></g></g></g><g fill="#ffffff" fill-opacity="1"><g transform="translate(199.785907, 112.723346)"><g><path d="M 2.3125 0.109375 C 2.082031 0.109375 1.910156 0.0234375 1.796875 -0.140625 C 1.679688 -0.304688 1.625 -0.503906 1.625 -0.734375 C 1.644531 -1.117188 1.71875 -1.347656 1.84375 -1.421875 C 1.976562 -1.503906 2.226562 -1.546875 2.59375 -1.546875 C 3.332031 -1.546875 3.882812 -1.679688 4.25 -1.953125 C 4.613281 -2.222656 4.835938 -2.554688 4.921875 -2.953125 C 5.015625 -3.359375 5.070312 -3.878906 5.09375 -4.515625 L 5.09375 -19.859375 C 5.070312 -20.503906 5.015625 -21.023438 4.921875 -21.421875 C 4.835938 -21.828125 4.613281 -22.164062 4.25 -22.4375 C 3.882812 -22.707031 3.332031 -22.84375 2.59375 -22.84375 L 2.359375 -22.84375 C 2.097656 -22.84375 1.914062 -22.882812 1.8125 -22.96875 C 1.707031 -23.0625 1.644531 -23.285156 1.625 -23.640625 C 1.625 -23.878906 1.679688 -24.082031 1.796875 -24.25 C 1.910156 -24.414062 2.082031 -24.5 2.3125 -24.5 C 3.988281 -24.414062 5.507812 -24.375 6.875 -24.375 L 12.328125 -24.375 C 13.742188 -24.375 14.890625 -24.269531 15.765625 -24.0625 C 16.640625 -23.863281 17.425781 -23.546875 18.125 -23.109375 C 18.789062 -22.671875 19.316406 -22.070312 19.703125 -21.3125 C 20.085938 -20.550781 20.28125 -19.71875 20.28125 -18.8125 C 20.28125 -17.21875 19.757812 -15.945312 18.71875 -15 C 17.675781 -14.0625 16.457031 -13.425781 15.0625 -13.09375 L 15.0625 -12.984375 C 16.40625 -12.984375 17.625 -12.71875 18.71875 -12.1875 C 19.8125 -11.664062 20.660156 -10.957031 21.265625 -10.0625 C 21.878906 -9.175781 22.1875 -8.21875 22.1875 -7.1875 C 22.1875 -5.4375 21.648438 -4.019531 20.578125 -2.9375 C 19.503906 -1.851562 18.160156 -1.085938 16.546875 -0.640625 C 14.941406 -0.191406 13.273438 0.03125 11.546875 0.03125 L 6.921875 0 C 5.523438 0 3.988281 0.0351562 2.3125 0.109375 Z M 10.546875 -13.75 C 11.578125 -13.75 12.472656 -13.828125 13.234375 -13.984375 C 13.992188 -14.140625 14.671875 -14.550781 15.265625 -15.21875 C 15.859375 -15.894531 16.15625 -16.941406 16.15625 -18.359375 C 16.15625 -21.421875 14.644531 -22.953125 11.625 -22.953125 L 8.921875 -22.953125 L 8.921875 -13.75 Z M 11.703125 -1.5 C 13.609375 -1.53125 15.132812 -2.003906 16.28125 -2.921875 C 17.425781 -3.835938 18 -5.335938 18 -7.421875 C 17.875 -8.804688 17.222656 -9.945312 16.046875 -10.84375 C 14.878906 -11.75 13.035156 -12.203125 10.515625 -12.203125 L 8.921875 -12.203125 L 8.921875 -4.515625 C 8.921875 -3.640625 9.003906 -2.988281 9.171875 -2.5625 C 9.335938 -2.144531 9.609375 -1.863281 9.984375 -1.71875 C 10.359375 -1.570312 10.929688 -1.5 11.703125 -1.5 Z M 11.703125 -1.5 "/></g></g></g><g fill="#ffffff" fill-opacity="1"><g transform="translate(223.777751, 112.723346)"><g><path d="M 2.359375 0.109375 C 2.128906 0.109375 1.953125 0.0234375 1.828125 -0.140625 C 1.710938 -0.304688 1.65625 -0.503906 1.65625 -0.734375 C 1.6875 -1.117188 1.765625 -1.347656 1.890625 -1.421875 C 2.023438 -1.503906 2.269531 -1.546875 2.625 -1.546875 C 3.375 -1.546875 3.925781 -1.679688 4.28125 -1.953125 C 4.644531 -2.222656 4.867188 -2.554688 4.953125 -2.953125 C 5.046875 -3.359375 5.109375 -3.878906 5.140625 -4.515625 L 5.140625 -19.828125 C 5.109375 -20.492188 5.046875 -21.019531 4.953125 -21.40625 C 4.867188 -21.789062 4.644531 -22.125 4.28125 -22.40625 C 3.925781 -22.695312 3.375 -22.84375 2.625 -22.84375 L 2.390625 -22.84375 C 2.140625 -22.84375 1.960938 -22.882812 1.859375 -22.96875 C 1.753906 -23.0625 1.6875 -23.285156 1.65625 -23.640625 C 1.65625 -23.878906 1.710938 -24.082031 1.828125 -24.25 C 1.953125 -24.414062 2.128906 -24.5 2.359375 -24.5 C 4.035156 -24.414062 5.566406 -24.375 6.953125 -24.375 L 13.59375 -24.375 C 15.582031 -24.351562 17.238281 -24.039062 18.5625 -23.4375 C 19.894531 -22.832031 20.867188 -22.054688 21.484375 -21.109375 C 22.097656 -20.171875 22.40625 -19.160156 22.40625 -18.078125 C 22.40625 -16.660156 21.84375 -15.359375 20.71875 -14.171875 C 19.601562 -12.992188 18.082031 -12.144531 16.15625 -11.625 L 16.8125 -10.59375 C 17.894531 -8.832031 18.875 -7.328125 19.75 -6.078125 C 20.625 -4.835938 21.578125 -3.675781 22.609375 -2.59375 C 23.328125 -2 24.097656 -1.648438 24.921875 -1.546875 C 24.972656 -1.546875 25.085938 -1.535156 25.265625 -1.515625 C 25.453125 -1.503906 25.601562 -1.4375 25.71875 -1.3125 C 25.832031 -1.1875 25.890625 -0.992188 25.890625 -0.734375 C 25.890625 -0.503906 25.832031 -0.304688 25.71875 -0.140625 C 25.601562 0.0234375 25.425781 0.109375 25.1875 0.109375 L 24.1875 0.078125 C 23.050781 0.0234375 22.226562 0 21.71875 0 C 20.6875 -0.207031 19.800781 -0.570312 19.0625 -1.09375 C 18.332031 -1.625 17.609375 -2.378906 16.890625 -3.359375 C 16.140625 -4.335938 15.09375 -5.9375 13.75 -8.15625 L 13.0625 -9.28125 C 12.675781 -9.863281 12.300781 -10.265625 11.9375 -10.484375 C 11.582031 -10.703125 10.960938 -10.8125 10.078125 -10.8125 L 8.96875 -10.8125 L 8.96875 -4.515625 C 8.988281 -3.878906 9.046875 -3.359375 9.140625 -2.953125 C 9.234375 -2.554688 9.457031 -2.222656 9.8125 -1.953125 C 10.175781 -1.679688 10.726562 -1.546875 11.46875 -1.546875 L 11.703125 -1.546875 C 11.941406 -1.546875 12.117188 -1.5 12.234375 -1.40625 C 12.347656 -1.320312 12.414062 -1.097656 12.4375 -0.734375 C 12.4375 -0.503906 12.378906 -0.304688 12.265625 -0.140625 C 12.148438 0.0234375 11.976562 0.109375 11.75 0.109375 C 10.101562 0.0351562 8.492188 0 6.921875 0 C 5.554688 0 4.035156 0.0351562 2.359375 0.109375 Z M 12.359375 -12.328125 C 16.203125 -12.328125 18.125 -14.128906 18.125 -17.734375 C 18.125 -19.203125 17.617188 -20.4375 16.609375 -21.4375 C 15.609375 -22.445312 13.960938 -22.953125 11.671875 -22.953125 C 10.921875 -22.953125 10.351562 -22.859375 9.96875 -22.671875 C 9.582031 -22.492188 9.316406 -22.1875 9.171875 -21.75 C 9.035156 -21.3125 8.96875 -20.644531 8.96875 -19.75 L 8.96875 -12.328125 Z M 12.359375 -12.328125 "/></g></g></g><g fill="#ffffff" fill-opacity="1"><g transform="translate(249.701292, 112.723346)"><g><path d="M 2.3125 0.109375 C 2.113281 0.109375 1.953125 0.0234375 1.828125 -0.140625 C 1.710938 -0.304688 1.65625 -0.503906 1.65625 -0.734375 C 1.6875 -1.117188 1.765625 -1.347656 1.890625 -1.421875 C 2.023438 -1.503906 2.269531 -1.546875 2.625 -1.546875 C 3.375 -1.546875 3.925781 -1.679688 4.28125 -1.953125 C 4.644531 -2.222656 4.867188 -2.554688 4.953125 -2.953125 C 5.046875 -3.359375 5.109375 -3.878906 5.140625 -4.515625 L 5.140625 -19.859375 C 5.109375 -20.503906 5.046875 -21.023438 4.953125 -21.421875 C 4.867188 -21.828125 4.644531 -22.164062 4.28125 -22.4375 C 3.925781 -22.707031 3.375 -22.84375 2.625 -22.84375 L 2.390625 -22.84375 C 2.140625 -22.84375 1.960938 -22.882812 1.859375 -22.96875 C 1.753906 -23.0625 1.6875 -23.285156 1.65625 -23.640625 C 1.65625 -23.878906 1.710938 -24.082031 1.828125 -24.25 C 1.953125 -24.414062 2.113281 -24.5 2.3125 -24.5 C 4.019531 -24.414062 5.554688 -24.375 6.921875 -24.375 L 19.046875 -24.375 C 19.710938 -24.375 20.046875 -24.066406 20.046875 -23.453125 L 20.171875 -18.046875 C 20.171875 -17.816406 20.050781 -17.628906 19.8125 -17.484375 C 19.582031 -17.335938 19.351562 -17.265625 19.125 -17.265625 C 18.8125 -17.265625 18.539062 -17.320312 18.3125 -17.4375 C 18.082031 -17.5625 17.953125 -17.738281 17.921875 -17.96875 C 17.722656 -19.226562 17.5 -20.1875 17.25 -20.84375 C 17.007812 -21.5 16.648438 -21.988281 16.171875 -22.3125 C 15.691406 -22.632812 15.015625 -22.8125 14.140625 -22.84375 L 8.96875 -22.84375 L 8.96875 -13.015625 L 15.953125 -13.015625 C 16.140625 -12.992188 16.28125 -12.898438 16.375 -12.734375 C 16.476562 -12.566406 16.53125 -12.367188 16.53125 -12.140625 C 16.53125 -11.929688 16.476562 -11.75 16.375 -11.59375 C 16.28125 -11.4375 16.140625 -11.359375 15.953125 -11.359375 L 8.96875 -11.359375 L 8.96875 -4.0625 C 9.019531 -3.519531 9.082031 -3.085938 9.15625 -2.765625 C 9.238281 -2.441406 9.472656 -2.148438 9.859375 -1.890625 C 10.242188 -1.628906 10.847656 -1.515625 11.671875 -1.546875 L 15.21875 -1.546875 C 16.125 -1.566406 16.804688 -1.710938 17.265625 -1.984375 C 17.734375 -2.253906 18.101562 -2.671875 18.375 -3.234375 C 18.644531 -3.804688 18.972656 -4.738281 19.359375 -6.03125 C 19.535156 -6.488281 19.972656 -6.664062 20.671875 -6.5625 C 20.929688 -6.507812 21.15625 -6.40625 21.34375 -6.25 C 21.539062 -6.101562 21.625 -5.914062 21.59375 -5.6875 L 20.828125 -0.8125 C 20.753906 -0.476562 20.640625 -0.257812 20.484375 -0.15625 C 20.328125 -0.0507812 20.066406 0 19.703125 0 L 6.953125 0 C 5.566406 0 4.019531 0.0351562 2.3125 0.109375 Z M 2.3125 0.109375 "/></g></g></g><g fill="#ffffff" fill-opacity="1"><g transform="translate(272.650001, 112.723346)"><g><path d="M 2.359375 0.109375 C 2.128906 0.109375 1.953125 0.0234375 1.828125 -0.140625 C 1.710938 -0.304688 1.65625 -0.503906 1.65625 -0.734375 C 1.6875 -1.117188 1.765625 -1.347656 1.890625 -1.421875 C 2.023438 -1.503906 2.269531 -1.546875 2.625 -1.546875 C 3.375 -1.546875 3.925781 -1.679688 4.28125 -1.953125 C 4.644531 -2.222656 4.867188 -2.554688 4.953125 -2.953125 C 5.046875 -3.359375 5.109375 -3.878906 5.140625 -4.515625 L 5.140625 -19.828125 C 5.109375 -20.492188 5.046875 -21.019531 4.953125 -21.40625 C 4.867188 -21.789062 4.644531 -22.125 4.28125 -22.40625 C 3.925781 -22.695312 3.375 -22.84375 2.625 -22.84375 L 2.390625 -22.84375 C 2.140625 -22.84375 1.960938 -22.882812 1.859375 -22.96875 C 1.753906 -23.0625 1.6875 -23.285156 1.65625 -23.640625 C 1.65625 -23.878906 1.710938 -24.082031 1.828125 -24.25 C 1.953125 -24.414062 2.128906 -24.5 2.359375 -24.5 C 4.035156 -24.414062 5.566406 -24.375 6.953125 -24.375 L 13.59375 -24.375 C 15.582031 -24.351562 17.238281 -24.039062 18.5625 -23.4375 C 19.894531 -22.832031 20.867188 -22.054688 21.484375 -21.109375 C 22.097656 -20.171875 22.40625 -19.160156 22.40625 -18.078125 C 22.40625 -16.660156 21.84375 -15.359375 20.71875 -14.171875 C 19.601562 -12.992188 18.082031 -12.144531 16.15625 -11.625 L 16.8125 -10.59375 C 17.894531 -8.832031 18.875 -7.328125 19.75 -6.078125 C 20.625 -4.835938 21.578125 -3.675781 22.609375 -2.59375 C 23.328125 -2 24.097656 -1.648438 24.921875 -1.546875 C 24.972656 -1.546875 25.085938 -1.535156 25.265625 -1.515625 C 25.453125 -1.503906 25.601562 -1.4375 25.71875 -1.3125 C 25.832031 -1.1875 25.890625 -0.992188 25.890625 -0.734375 C 25.890625 -0.503906 25.832031 -0.304688 25.71875 -0.140625 C 25.601562 0.0234375 25.425781 0.109375 25.1875 0.109375 L 24.1875 0.078125 C 23.050781 0.0234375 22.226562 0 21.71875 0 C 20.6875 -0.207031 19.800781 -0.570312 19.0625 -1.09375 C 18.332031 -1.625 17.609375 -2.378906 16.890625 -3.359375 C 16.140625 -4.335938 15.09375 -5.9375 13.75 -8.15625 L 13.0625 -9.28125 C 12.675781 -9.863281 12.300781 -10.265625 11.9375 -10.484375 C 11.582031 -10.703125 10.960938 -10.8125 10.078125 -10.8125 L 8.96875 -10.8125 L 8.96875 -4.515625 C 8.988281 -3.878906 9.046875 -3.359375 9.140625 -2.953125 C 9.234375 -2.554688 9.457031 -2.222656 9.8125 -1.953125 C 10.175781 -1.679688 10.726562 -1.546875 11.46875 -1.546875 L 11.703125 -1.546875 C 11.941406 -1.546875 12.117188 -1.5 12.234375 -1.40625 C 12.347656 -1.320312 12.414062 -1.097656 12.4375 -0.734375 C 12.4375 -0.503906 12.378906 -0.304688 12.265625 -0.140625 C 12.148438 0.0234375 11.976562 0.109375 11.75 0.109375 C 10.101562 0.0351562 8.492188 0 6.921875 0 C 5.554688 0 4.035156 0.0351562 2.359375 0.109375 Z M 12.359375 -12.328125 C 16.203125 -12.328125 18.125 -14.128906 18.125 -17.734375 C 18.125 -19.203125 17.617188 -20.4375 16.609375 -21.4375 C 15.609375 -22.445312 13.960938 -22.953125 11.671875 -22.953125 C 10.921875 -22.953125 10.351562 -22.859375 9.96875 -22.671875 C 9.582031 -22.492188 9.316406 -22.1875 9.171875 -21.75 C 9.035156 -21.3125 8.96875 -20.644531 8.96875 -19.75 L 8.96875 -12.328125 Z M 12.359375 -12.328125 "/></g></g></g><g fill="#ffffff" fill-opacity="1"><g transform="translate(298.573541, 112.723346)"><g><path d="M 2.3125 0.109375 C 2.082031 0.109375 1.910156 0.0234375 1.796875 -0.140625 C 1.679688 -0.304688 1.625 -0.503906 1.625 -0.734375 C 1.644531 -1.117188 1.726562 -1.347656 1.875 -1.421875 C 2.019531 -1.503906 2.257812 -1.546875 2.59375 -1.546875 C 3.332031 -1.546875 3.882812 -1.679688 4.25 -1.953125 C 4.613281 -2.222656 4.84375 -2.550781 4.9375 -2.9375 C 5.039062 -3.320312 5.109375 -3.847656 5.140625 -4.515625 L 5.140625 -19.859375 C 5.109375 -20.523438 5.039062 -21.050781 4.9375 -21.4375 C 4.84375 -21.832031 4.613281 -22.164062 4.25 -22.4375 C 3.882812 -22.707031 3.332031 -22.84375 2.59375 -22.84375 L 2.359375 -22.84375 C 2.128906 -22.84375 1.953125 -22.882812 1.828125 -22.96875 C 1.710938 -23.0625 1.644531 -23.285156 1.625 -23.640625 C 1.625 -23.878906 1.679688 -24.082031 1.796875 -24.25 C 1.910156 -24.414062 2.082031 -24.5 2.3125 -24.5 C 3.988281 -24.414062 5.523438 -24.375 6.921875 -24.375 C 8.460938 -24.375 10.070312 -24.414062 11.75 -24.5 C 11.976562 -24.5 12.148438 -24.414062 12.265625 -24.25 C 12.378906 -24.082031 12.4375 -23.878906 12.4375 -23.640625 C 12.414062 -23.253906 12.332031 -23.023438 12.1875 -22.953125 C 12.050781 -22.878906 11.800781 -22.84375 11.4375 -22.84375 C 10.6875 -22.84375 10.128906 -22.707031 9.765625 -22.4375 C 9.410156 -22.164062 9.1875 -21.828125 9.09375 -21.421875 C 9.007812 -21.023438 8.953125 -20.503906 8.921875 -19.859375 L 8.921875 -4.515625 C 8.953125 -3.878906 9.007812 -3.359375 9.09375 -2.953125 C 9.1875 -2.554688 9.410156 -2.222656 9.765625 -1.953125 C 10.128906 -1.679688 10.6875 -1.546875 11.4375 -1.546875 L 11.671875 -1.546875 C 11.929688 -1.546875 12.117188 -1.5 12.234375 -1.40625 C 12.347656 -1.320312 12.414062 -1.097656 12.4375 -0.734375 C 12.4375 -0.503906 12.378906 -0.304688 12.265625 -0.140625 C 12.148438 0.0234375 11.976562 0.109375 11.75 0.109375 C 10.101562 0.0351562 8.503906 0 6.953125 0 C 5.535156 0 3.988281 0.0351562 2.3125 0.109375 Z M 2.3125 0.109375 "/></g></g></g><g fill="#ffffff" fill-opacity="1"><g transform="translate(312.636383, 112.723346)"><g><path d="M 0.234375 0.109375 C 0.00390625 0.109375 -0.164062 0.0234375 -0.28125 -0.140625 C -0.40625 -0.304688 -0.46875 -0.503906 -0.46875 -0.734375 C -0.4375 -1.117188 -0.351562 -1.347656 -0.21875 -1.421875 C -0.09375 -1.503906 0.0546875 -1.546875 0.234375 -1.546875 C 0.410156 -1.546875 0.523438 -1.546875 0.578125 -1.546875 C 1.347656 -1.546875 1.914062 -1.742188 2.28125 -2.140625 C 2.644531 -2.546875 2.9375 -3 3.15625 -3.5 C 3.375 -4 3.519531 -4.335938 3.59375 -4.515625 L 10.359375 -20.515625 C 10.515625 -20.898438 10.59375 -21.210938 10.59375 -21.453125 C 10.59375 -21.910156 10.410156 -22.242188 10.046875 -22.453125 C 9.679688 -22.660156 9.179688 -22.828125 8.546875 -22.953125 C 8.097656 -23.023438 7.820312 -23.097656 7.71875 -23.171875 C 7.625 -23.253906 7.578125 -23.476562 7.578125 -23.84375 C 7.578125 -24.15625 7.660156 -24.359375 7.828125 -24.453125 C 7.992188 -24.554688 8.253906 -24.609375 8.609375 -24.609375 C 9.898438 -24.609375 10.925781 -24.507812 11.6875 -24.3125 C 12.445312 -24.125 13.109375 -23.738281 13.671875 -23.15625 C 14.242188 -22.582031 14.773438 -21.703125 15.265625 -20.515625 L 21.75 -4.515625 C 22.132812 -3.535156 22.507812 -2.800781 22.875 -2.3125 C 23.238281 -1.820312 23.78125 -1.566406 24.5 -1.546875 L 24.734375 -1.546875 C 24.984375 -1.546875 25.160156 -1.5 25.265625 -1.40625 C 25.367188 -1.320312 25.4375 -1.097656 25.46875 -0.734375 C 25.46875 -0.503906 25.40625 -0.304688 25.28125 -0.140625 C 25.164062 0.0234375 24.992188 0.109375 24.765625 0.109375 C 23.117188 0.0351562 21.703125 0 20.515625 0 C 18.972656 0 17.378906 0.0351562 15.734375 0.109375 C 15.492188 0.109375 15.316406 0.0234375 15.203125 -0.140625 C 15.085938 -0.304688 15.03125 -0.503906 15.03125 -0.734375 C 15.050781 -1.097656 15.113281 -1.320312 15.21875 -1.40625 C 15.320312 -1.5 15.503906 -1.546875 15.765625 -1.546875 C 16.640625 -1.546875 17.253906 -1.628906 17.609375 -1.796875 C 17.972656 -1.960938 18.15625 -2.265625 18.15625 -2.703125 C 18.15625 -3.035156 18.003906 -3.640625 17.703125 -4.515625 L 16.390625 -7.734375 L 6.84375 -7.734375 C 6.195312 -6.128906 5.828125 -5.195312 5.734375 -4.9375 C 5.648438 -4.6875 5.609375 -4.546875 5.609375 -4.515625 C 5.296875 -3.535156 5.140625 -2.90625 5.140625 -2.625 C 5.140625 -2.1875 5.332031 -1.894531 5.71875 -1.75 C 6.101562 -1.613281 6.835938 -1.546875 7.921875 -1.546875 L 8.15625 -1.546875 C 8.414062 -1.546875 8.59375 -1.5 8.6875 -1.40625 C 8.789062 -1.320312 8.859375 -1.097656 8.890625 -0.734375 C 8.890625 -0.503906 8.832031 -0.304688 8.71875 -0.140625 C 8.601562 0.0234375 8.425781 0.109375 8.1875 0.109375 C 6.539062 0.0351562 5.140625 0 3.984375 0 C 3.160156 0 1.910156 0.0351562 0.234375 0.109375 Z M 7.578125 -9.390625 L 15.6875 -9.390625 L 11.78125 -19.328125 L 11.671875 -19.328125 Z M 7.578125 -9.390625 "/></g></g></g><g clip-path="url(#d2075d3e10)"><path fill="#ffffff" d="M 135.632812 14.378906 C 134.679688 13.65625 133.425781 13.375 132.238281 13.632812 C 132.238281 13.632812 132.09375 13.667969 131.875 13.71875 L 131.875 115.703125 L 5.839844 115.703125 L 5.839844 13.71875 C 5.621094 13.667969 5.472656 13.632812 5.472656 13.632812 C 4.28125 13.375 3.03125 13.667969 2.082031 14.378906 C 1.136719 15.109375 0.582031 16.210938 0.582031 17.371094 L 0.582031 117.566406 C 0.582031 119.683594 2.375 121.390625 4.59375 121.390625 L 52.859375 121.390625 C 52.710938 121.785156 52.597656 122.179688 52.597656 122.621094 C 52.597656 124.734375 54.382812 126.441406 56.609375 126.441406 L 81.113281 126.441406 C 83.328125 126.441406 85.125 124.734375 85.125 122.621094 C 85.125 122.179688 85.003906 121.785156 84.855469 121.390625 L 133.113281 121.390625 C 135.339844 121.390625 137.125 119.683594 137.125 117.566406 L 137.125 17.371094 C 137.125 16.210938 136.582031 15.109375 135.632812 14.378906 Z M 11.226562 112.949219 C 11.246094 113 11.285156 113.007812 11.300781 113.050781 C 11.335938 113.101562 11.359375 113.144531 11.40625 113.183594 C 11.46875 113.234375 11.519531 113.261719 11.597656 113.28125 C 11.640625 113.28125 11.664062 113.3125 11.695312 113.3125 C 11.714844 113.3125 11.738281 113.292969 11.757812 113.292969 C 11.789062 113.28125 11.808594 113.300781 11.828125 113.292969 L 25.183594 107.757812 C 41.234375 101.566406 52.179688 97.339844 65.332031 110.199219 L 65.332031 18.445312 C 54.105469 7.386719 44.835938 9.046875 32.457031 11.320312 C 25.949219 12.523438 20.679688 13.890625 11.707031 13.578125 C 11.707031 13.578125 11.707031 13.578125 11.695312 13.578125 C 11.632812 13.578125 11.578125 13.632812 11.519531 13.65625 C 11.46875 13.683594 11.394531 13.683594 11.34375 13.734375 C 11.3125 13.773438 11.300781 13.839844 11.285156 13.898438 C 11.253906 13.957031 11.199219 14.011719 11.191406 14.082031 C 11.191406 14.09375 11.199219 14.09375 11.199219 14.09375 C 11.199219 14.101562 11.191406 14.101562 11.191406 14.101562 L 11.191406 112.785156 C 11.191406 112.820312 11.226562 112.835938 11.234375 112.867188 C 11.234375 112.902344 11.214844 112.925781 11.226562 112.949219 Z M 112.589844 107.933594 L 125.652344 113.210938 C 125.75 113.320312 125.867188 113.398438 126.015625 113.398438 C 126.257812 113.398438 126.421875 113.214844 126.460938 112.988281 C 126.472656 112.96875 126.488281 112.96875 126.488281 112.949219 C 126.503906 112.941406 126.488281 112.925781 126.488281 112.917969 C 126.488281 112.902344 126.511719 112.890625 126.511719 112.875 L 126.511719 13.957031 C 126.511719 13.949219 126.503906 13.949219 126.503906 13.949219 C 126.503906 13.9375 126.511719 13.9375 126.511719 13.9375 C 126.511719 13.855469 126.453125 13.804688 126.421875 13.75 C 126.40625 13.695312 126.394531 13.625 126.359375 13.578125 C 126.308594 13.523438 126.242188 13.511719 126.171875 13.503906 C 126.117188 13.476562 126.082031 13.425781 126.015625 13.425781 C 126.007812 13.425781 126.007812 13.429688 126.007812 13.429688 C 126.007812 13.429688 126.007812 13.425781 126 13.425781 C 117.15625 13.734375 111.566406 12.433594 104.78125 11.292969 C 91.824219 9.097656 81.335938 7.398438 71.105469 18.339844 L 71.105469 110.183594 C 83.289062 97.109375 95.160156 101.488281 112.589844 107.933594 Z M 112.589844 107.933594 " fill-opacity="1" fill-rule="nonzero"/></g></svg>